STARTFONT 2.1
FONT -FontForge-Tangerine-Book-R-Normal--36-360-72-72-P-134-ISO10646-1
SIZE 36 72 72
FONTBOUNDINGBOX 60 38 -12 -10
COMMENT "Generated by fontforge, http://fontforge.sourceforge.net"
COMMENT "Copyright (c) 2010 by Toshi Omagari. All rights reserved."
STARTPROPERTIES 39
FOUNDRY "FontForge"
FAMILY_NAME "Tangerine"
WEIGHT_NAME "Book"
SLANT "R"
SETWIDTH_NAME "Normal"
ADD_STYLE_NAME ""
PIXEL_SIZE 36
POINT_SIZE 360
RESOLUTION_X 72
RESOLUTION_Y 72
SPACING "P"
AVERAGE_WIDTH 134
CHARSET_REGISTRY "ISO10646"
CHARSET_ENCODING "1"
FONTNAME_REGISTRY ""
CHARSET_COLLECTIONS "ISO10646-1"
FONT_NAME "Tangerine-Regular"
FACE_NAME "Tangerine Regular"
COPYRIGHT "Copyright (c) 2010 by Toshi Omagari. All rights reserved."
FONT_VERSION "1.3"
FONT_ASCENT 27
FONT_DESCENT 9
UNDERLINE_POSITION -4
UNDERLINE_THICKNESS 2
X_HEIGHT 8
CAP_HEIGHT 22
RAW_ASCENT 750
RAW_DESCENT 250
NORM_SPACE 5
RELATIVE_WEIGHT 40
RELATIVE_SETWIDTH 50
SUPERSCRIPT_X 0
SUPERSCRIPT_Y 17
SUPERSCRIPT_SIZE 23
SUBSCRIPT_X 0
SUBSCRIPT_Y 5
SUBSCRIPT_SIZE 23
AVG_LOWERCASE_WIDTH 87
AVG_UPPERCASE_WIDTH 256
ENDPROPERTIES
CHARS 233
STARTCHAR space
ENCODING 32
SWIDTH 150 0
DWIDTH 5 0
BBX 1 1 0 0
BITMAP
00
ENDCHAR
STARTCHAR exclam
ENCODING 33
SWIDTH 189 0
DWIDTH 7 0
BBX 9 19 2 0
BITMAP
0080
0180
0100
0100
0300
0200
0200
0400
0400
0800
0800
1000
1000
1000
2000
0000
0000
4000
8000
ENDCHAR
STARTCHAR quotedbl
ENCODING 34
SWIDTH 214 0
DWIDTH 8 0
BBX 8 5 2 10
BITMAP
33
22
44
44
88
ENDCHAR
STARTCHAR numbersign
ENCODING 35
SWIDTH 289 0
DWIDTH 10 0
BBX 11 11 0 0
BITMAP
0260
04C0
3FE0
0900
1100
1300
FF80
2200
2400
4400
4800
ENDCHAR
STARTCHAR dollar
ENCODING 36
SWIDTH 269 0
DWIDTH 10 0
BBX 9 17 0 -3
BITMAP
0080
0080
0100
0780
0980
0A80
0A00
0400
0600
0700
4900
8900
9200
7400
2800
2000
4000
ENDCHAR
STARTCHAR percent
ENCODING 37
SWIDTH 388 0
DWIDTH 14 0
BBX 12 17 1 -3
BITMAP
0010
0010
0020
3840
4880
8880
8900
8A70
F490
E510
0910
1110
2120
21C0
4000
8000
8000
ENDCHAR
STARTCHAR ampersand
ENCODING 38
SWIDTH 507 0
DWIDTH 18 0
BBX 17 17 1 0
BITMAP
018000
06C000
044000
084000
088000
088000
050000
060000
1C0380
260C80
461000
822000
832000
81C000
C0C000
617180
3E1E00
ENDCHAR
STARTCHAR quotesingle
ENCODING 39
SWIDTH 120 0
DWIDTH 4 0
BBX 4 5 2 10
BITMAP
30
20
40
80
80
ENDCHAR
STARTCHAR parenleft
ENCODING 40
SWIDTH 250 0
DWIDTH 9 0
BBX 9 27 3 -4
BITMAP
0080
0100
0200
0400
0C00
0800
1800
1000
3000
3000
2000
6000
6000
4000
4000
4000
C000
C000
C000
C000
C000
C000
4000
4000
4000
4000
4000
ENDCHAR
STARTCHAR parenright
ENCODING 41
SWIDTH 276 0
DWIDTH 10 0
BBX 9 27 1 -4
BITMAP
0200
0100
0100
0100
0100
0100
0100
0180
0100
0100
0100
0100
0100
0300
0300
0200
0200
0600
0400
0400
0800
0800
1000
3000
2000
4000
8000
ENDCHAR
STARTCHAR asterisk
ENCODING 42
SWIDTH 188 0
DWIDTH 7 0
BBX 6 6 1 9
BITMAP
10
20
EC
30
50
98
ENDCHAR
STARTCHAR plus
ENCODING 43
SWIDTH 301 0
DWIDTH 11 0
BBX 8 9 2 1
BITMAP
04
04
08
08
FF
10
10
20
20
ENDCHAR
STARTCHAR comma
ENCODING 44
SWIDTH 112 0
DWIDTH 4 0
BBX 4 5 -1 -3
BITMAP
30
30
30
20
C0
ENDCHAR
STARTCHAR hyphen
ENCODING 45
SWIDTH 245 0
DWIDTH 9 0
BBX 7 1 1 5
BITMAP
FE
ENDCHAR
STARTCHAR period
ENCODING 46
SWIDTH 112 0
DWIDTH 4 0
BBX 2 3 1 0
BITMAP
40
C0
80
ENDCHAR
STARTCHAR slash
ENCODING 47
SWIDTH 210 0
DWIDTH 8 0
BBX 15 25 -1 -2
BITMAP
0002
0004
0008
0008
0010
0010
0020
0060
0040
0080
0080
0100
0100
0200
0400
0400
0800
0800
1000
1000
2000
4000
4000
8000
8000
ENDCHAR
STARTCHAR zero
ENCODING 48
SWIDTH 349 0
DWIDTH 13 0
BBX 10 11 2 0
BITMAP
0F80
3080
4040
4040
8040
8040
8080
8080
C100
6200
7C00
ENDCHAR
STARTCHAR one
ENCODING 49
SWIDTH 189 0
DWIDTH 7 0
BBX 7 11 1 0
BITMAP
06
7C
0C
18
18
30
30
60
60
C0
C0
ENDCHAR
STARTCHAR two
ENCODING 50
SWIDTH 277 0
DWIDTH 10 0
BBX 9 11 1 0
BITMAP
0700
1980
2080
2080
0080
0100
0200
0400
1800
7080
9F00
ENDCHAR
STARTCHAR three
ENCODING 51
SWIDTH 253 0
DWIDTH 9 0
BBX 11 17 -2 -6
BITMAP
03C0
0420
0020
0020
0060
00C0
0700
18C0
00E0
0060
0060
0060
0040
00C0
8180
8200
7C00
ENDCHAR
STARTCHAR four
ENCODING 52
SWIDTH 363 0
DWIDTH 13 0
BBX 16 18 1 0
BITMAP
0003
0004
0018
0038
00D0
0130
0220
0460
0840
10C0
2080
7088
8FF0
0100
0300
0300
0200
0600
ENDCHAR
STARTCHAR five
ENCODING 53
SWIDTH 250 0
DWIDTH 9 0
BBX 13 18 -3 -6
BITMAP
0008
01F8
0100
0200
0200
0200
0300
0180
00C0
0040
0040
0040
0040
0040
0080
0100
C200
7C00
ENDCHAR
STARTCHAR six
ENCODING 54
SWIDTH 296 0
DWIDTH 11 0
BBX 13 18 2 0
BITMAP
0070
0188
0608
0800
1000
1000
2000
2400
5E00
6300
4100
8100
8100
8200
8200
8400
C800
7000
ENDCHAR
STARTCHAR seven
ENCODING 55
SWIDTH 326 0
DWIDTH 12 0
BBX 13 17 0 -6
BITMAP
0FE8
0FF8
1010
2020
2020
0040
0080
0080
0100
0200
0400
0800
1000
3000
6000
4000
8000
ENDCHAR
STARTCHAR eight
ENCODING 56
SWIDTH 305 0
DWIDTH 11 0
BBX 11 17 2 0
BITMAP
07C0
0860
1020
1020
1040
1840
0D80
0600
1B00
6180
4080
8080
8080
8080
8100
4200
7C00
ENDCHAR
STARTCHAR nine
ENCODING 57
SWIDTH 304 0
DWIDTH 11 0
BBX 12 16 -1 -5
BITMAP
01E0
0E70
0830
1030
1030
1030
1070
1060
18E0
0F40
0040
0080
0080
0100
8600
F000
ENDCHAR
STARTCHAR colon
ENCODING 58
SWIDTH 156 0
DWIDTH 6 0
BBX 4 9 1 0
BITMAP
10
20
00
00
00
00
00
40
80
ENDCHAR
STARTCHAR semicolon
ENCODING 59
SWIDTH 156 0
DWIDTH 6 0
BBX 5 12 0 -3
BITMAP
18
10
00
00
00
00
00
60
20
40
40
80
ENDCHAR
STARTCHAR less
ENCODING 60
SWIDTH 301 0
DWIDTH 11 0
BBX 9 7 2 2
BITMAP
0180
0E00
3000
C000
6000
1000
0E00
ENDCHAR
STARTCHAR equal
ENCODING 61
SWIDTH 301 0
DWIDTH 11 0
BBX 9 4 1 3
BITMAP
7F80
0000
0000
FF00
ENDCHAR
STARTCHAR greater
ENCODING 62
SWIDTH 301 0
DWIDTH 11 0
BBX 9 7 1 2
BITMAP
2000
1800
0600
0180
0600
3800
C000
ENDCHAR
STARTCHAR question
ENCODING 63
SWIDTH 285 0
DWIDTH 10 0
BBX 12 19 2 0
BITMAP
00C0
03F0
0430
0810
0010
0010
0020
0040
0080
0100
0600
1800
2000
2000
3000
0000
0000
4000
8000
ENDCHAR
STARTCHAR at
ENCODING 64
SWIDTH 492 0
DWIDTH 18 0
BBX 15 16 1 -3
BITMAP
03F0
0C18
1004
2006
41F2
4222
4442
8442
84C4
8548
C650
4020
6008
3008
1C30
07C0
ENDCHAR
STARTCHAR A
ENCODING 65
SWIDTH 996 0
DWIDTH 36 0
BBX 34 23 2 0
BITMAP
00000FF000
0000301F00
0000C001C0
0001000280
0001000580
0002000900
0002001200
0000002200
0000004600
0000008400
0000010400
0000020C00
0000FFF800
0000080800
4000100800
8000200800
8000400800
8000801800
8001001800
C006000840
E018000880
7FE0000F00
3F00000600
ENDCHAR
STARTCHAR B
ENCODING 66
SWIDTH 638 0
DWIDTH 23 0
BBX 23 24 1 0
BITMAP
000060
000FC0
003238
00C40C
01040E
020806
040806
000806
00100C
00100C
0011F0
0022E0
002030
002018
00401C
00400C
00800C
00800C
01000C
E2000C
7C0018
1C0030
070060
00FF80
ENDCHAR
STARTCHAR C
ENCODING 67
SWIDTH 557 0
DWIDTH 20 0
BBX 21 23 2 0
BITMAP
001FE0
00E038
030018
040010
080010
100000
300000
200000
600000
400000
C00000
C00000
C00000
C00000
C00000
C00000
C00040
600040
600080
300080
180180
0C0300
03FC00
ENDCHAR
STARTCHAR D
ENCODING 68
SWIDTH 799 0
DWIDTH 29 0
BBX 27 24 1 0
BITMAP
00000200
007F0C00
0181F000
02007000
04004C00
0800C600
08008300
08018100
00010080
000300C0
00030040
00020040
00060060
00060020
00040020
000C0020
00080020
00180020
00100040
00300040
3E600080
C1E00100
813C0200
FE07FC00
ENDCHAR
STARTCHAR E
ENCODING 69
SWIDTH 494 0
DWIDTH 18 0
BBX 17 23 2 0
BITMAP
007E00
008180
010080
020100
020100
020000
030000
018000
01E000
060000
180000
200000
600000
400000
C00000
C00000
C00200
C00200
C00200
E00200
600400
301800
0FE000
ENDCHAR
STARTCHAR F
ENCODING 70
SWIDTH 626 0
DWIDTH 23 0
BBX 28 23 2 0
BITMAP
0007F800
00180FF0
00200400
00400800
00801000
01001000
00003000
00002000
00002000
00006000
00004000
003FFC00
00004000
00008000
00008000
40010000
80010000
80020000
80040000
80040000
C0080000
70700000
3F800000
ENDCHAR
STARTCHAR G
ENCODING 71
SWIDTH 571 0
DWIDTH 21 0
BBX 26 30 -1 -7
BITMAP
00001F80
000040C0
00018040
00020040
00040080
00080080
00100000
00300000
00200000
00600000
00400000
00400000
00C00000
00C00000
00C00800
00C01800
00C03000
00C03000
00607000
003BA000
30046000
40004000
C0004000
C0008000
C0018000
C0010000
E0020000
60040000
30180000
1FE00000
ENDCHAR
STARTCHAR H
ENCODING 72
SWIDTH 865 0
DWIDTH 31 0
BBX 39 24 2 0
BITMAP
000000001E
000FE00062
0030380082
0040200100
0080400200
0080400400
0100800400
0100800800
0081800800
0001001000
0001001000
0003002000
0003002000
01FFC06000
06023F4000
180401F000
200400C000
4008008000
8008008000
8010008000
8020018800
8040019000
C08001E000
7F0000C000
ENDCHAR
STARTCHAR I
ENCODING 73
SWIDTH 554 0
DWIDTH 20 0
BBX 25 23 2 0
BITMAP
00000380
00001F00
00006400
00010C00
00020800
00041800
00081000
00083000
00103000
00103000
00102000
00106000
00106000
00104000
0010C000
00088000
6007C000
80010000
80020000
80040000
C0080000
60700000
3F800000
ENDCHAR
STARTCHAR J
ENCODING 74
SWIDTH 634 0
DWIDTH 23 0
BBX 30 30 0 -7
BITMAP
0000001C
000000F8
00000320
00000C60
00001040
000020C0
000040C0
00008180
00008180
00008180
00010300
00010300
00010200
00010600
00008400
00008C00
00007E00
01C00800
06001000
18001000
20001000
40002000
40004000
80004000
80008000
80010000
80020000
C00C0000
60300000
3FC00000
ENDCHAR
STARTCHAR K
ENCODING 75
SWIDTH 936 0
DWIDTH 34 0
BBX 34 23 2 0
BITMAP
0007F80380
00181C0CC0
0020081040
00C0106080
0080208000
0100210000
0100620000
0100440000
0200480000
0200500000
0100D00000
0000D80000
0000980000
0000880000
20018C0000
40010C0000
8001040000
8002060000
8004020000
8004030000
C018018200
606000C200
3F80007C00
ENDCHAR
STARTCHAR L
ENCODING 76
SWIDTH 657 0
DWIDTH 24 0
BBX 25 23 1 0
BITMAP
00000F00
00003F80
00006180
0000C080
00008080
00018100
00010000
00030000
00020000
00060000
00060000
00040000
000C0000
000C0000
00080000
00180000
00100000
00100000
00200000
7F600400
80C00400
C1380800
7E07F000
ENDCHAR
STARTCHAR M
ENCODING 77
SWIDTH 1219 0
DWIDTH 44 0
BBX 46 23 1 0
BITMAP
00003FC0000C
0000C0FC0010
0003000F8070
0004000200E0
000400060140
0008000406C0
0008001C0880
0000001C1100
000000282100
000000484300
000000904200
100000908600
200001110600
400002320400
400004240C00
400008240C00
C00010280C00
C00020700C00
400040700C00
600180600C20
700600600E40
3E3800400780
0FE000400300
ENDCHAR
STARTCHAR N
ENCODING 78
SWIDTH 990 0
DWIDTH 36 0
BBX 44 23 2 0
BITMAP
0007C00000E0
0018740003F0
00201C000610
004006000410
00000B000800
000009001000
000008801000
000008C02000
000008404000
000010204000
000010304000
000010108000
000020188000
600020090000
400040090000
8000400D0000
800080050000
800100060000
C00200060000
C00400020000
700800020000
3FF000020000
0FC000020000
ENDCHAR
STARTCHAR O
ENCODING 79
SWIDTH 606 0
DWIDTH 22 0
BBX 21 23 2 0
BITMAP
003F00
00C0C0
030060
040030
080010
100018
300008
200008
600008
600008
400008
C00008
C00010
C00010
C00010
C00020
C00020
E00040
600080
700100
380200
1E0C00
07F000
ENDCHAR
STARTCHAR P
ENCODING 80
SWIDTH 783 0
DWIDTH 28 0
BBX 30 24 2 0
BITMAP
000001C0
00007F80
000188E0
00060830
00081018
00101018
0020300C
0020200C
0040200C
0000600C
0000400C
00024018
0001C018
00008030
2000C0E0
4001BF00
80018000
80030000
80020000
80040000
C00C0000
40180000
70600000
1F800000
ENDCHAR
STARTCHAR Q
ENCODING 81
SWIDTH 563 0
DWIDTH 20 0
BBX 25 29 2 -6
BITMAP
003F0000
01C18000
0200C000
04006000
08006000
10003000
10003000
10003000
20003000
20003000
20003000
20002000
20006000
20004000
2000C000
30008000
18010000
0F020000
00040000
00080000
00300000
41C00000
FE000000
0E000000
03800000
00600000
00180080
00070100
0001FE00
ENDCHAR
STARTCHAR R
ENCODING 82
SWIDTH 854 0
DWIDTH 31 0
BBX 29 24 2 0
BITMAP
00000700
00007F00
00019080
00061040
00182060
00202020
00406020
00004020
00004020
0000C040
0000C040
00008080
0001BF00
00013000
00013000
20031800
40021800
80061800
80041800
80080C00
80100C00
C0200608
60C00390
3E0001E0
ENDCHAR
STARTCHAR S
ENCODING 83
SWIDTH 480 0
DWIDTH 17 0
BBX 17 23 2 0
BITMAP
001F00
006180
008080
008080
008100
008000
00C000
00C000
006000
002000
003000
001800
001800
000800
000C00
400400
800400
800400
800400
800800
C01000
702000
1FC000
ENDCHAR
STARTCHAR T
ENCODING 84
SWIDTH 577 0
DWIDTH 21 0
BBX 27 23 2 0
BITMAP
003FF000
00C01F80
010001E0
02000600
04000800
04001000
08003000
08002000
08006000
00004000
00004000
0000C000
00008000
00008000
00018000
40010000
80020000
80020000
80040000
80080000
C0100000
70E00000
3F000000
ENDCHAR
STARTCHAR U
ENCODING 85
SWIDTH 752 0
DWIDTH 27 0
BBX 27 23 3 0
BITMAP
03F80060
0C1E0040
100400C0
60080080
40100180
80200100
80400300
80400200
80800600
80800600
81000C00
81001C00
03001C00
02002800
02002800
06005800
06009000
06009000
06011000
06021100
06041100
03081E00
01F01C00
ENDCHAR
STARTCHAR V
ENCODING 86
SWIDTH 661 0
DWIDTH 24 0
BBX 24 23 3 0
BITMAP
07800C
18C01E
202027
401003
401801
800801
800801
800C01
800C02
000C02
000C04
000C04
000C08
000C10
000C20
000C20
000C40
000880
001B00
001C00
001800
003000
002000
ENDCHAR
STARTCHAR W
ENCODING 87
SWIDTH 822 0
DWIDTH 30 0
BBX 31 23 2 0
BITMAP
07C00006
18E0000E
20300412
40300802
40181002
80182002
80086002
8008A002
8008A004
00092004
000A2008
000A2010
00142010
00143020
00181040
00101080
00101100
00201200
00201400
00601400
00401800
00401000
00801000
ENDCHAR
STARTCHAR X
ENCODING 88
SWIDTH 813 0
DWIDTH 29 0
BBX 28 23 2 0
BITMAP
000C0070
001C01F0
00260610
00460810
00421010
00022000
00024000
00024000
00028000
00018000
00010000
00010000
00010000
00078000
00048000
00088000
4010C000
40106000
40206020
C0403020
C0803C40
FF001FC0
7C000780
ENDCHAR
STARTCHAR Y
ENCODING 89
SWIDTH 662 0
DWIDTH 24 0
BBX 32 28 0 -5
BITMAP
00070003
00098002
00318006
0001800C
0001800C
00010018
00030018
00030030
00020030
00020060
000200E0
000400C0
00040180
00040280
02040500
1C040900
20043200
4003C400
80000400
80000800
80001000
80002000
80004000
80008000
C0010000
60020000
380C0000
1FD00000
ENDCHAR
STARTCHAR Z
ENCODING 90
SWIDTH 625 0
DWIDTH 23 0
BBX 24 23 2 0
BITMAP
003F80
004071
00800E
01000C
010010
010020
000040
000080
000100
000200
000400
000800
001000
006000
008000
010000
020010
040010
080020
100020
3E00C0
7FFF80
83FE00
ENDCHAR
STARTCHAR bracketleft
ENCODING 91
SWIDTH 318 0
DWIDTH 11 0
BBX 12 25 3 -3
BITMAP
03F0
0200
0600
0600
0400
0400
0400
0C00
0800
0800
0800
1800
1000
1000
3000
3000
2000
2000
6000
6000
6000
4000
C000
C000
FC00
ENDCHAR
STARTCHAR backslash
ENCODING 92
SWIDTH 212 0
DWIDTH 8 0
BBX 5 25 1 -2
BITMAP
80
80
80
80
80
40
40
40
40
40
20
20
20
20
20
10
10
10
10
10
08
08
08
08
08
ENDCHAR
STARTCHAR bracketright
ENCODING 93
SWIDTH 339 0
DWIDTH 12 0
BBX 12 25 1 -3
BITMAP
03F0
0030
0030
0020
0060
0060
0040
0040
0040
00C0
0080
0080
0080
0180
0100
0100
0100
0300
0200
0200
0600
0600
0400
0400
FC00
ENDCHAR
STARTCHAR asciicircum
ENCODING 94
SWIDTH 272 0
DWIDTH 10 0
BBX 7 7 2 6
BITMAP
08
18
14
24
44
86
82
ENDCHAR
STARTCHAR underscore
ENCODING 95
SWIDTH 356 0
DWIDTH 13 0
BBX 12 1 -1 -2
BITMAP
FFF0
ENDCHAR
STARTCHAR grave
ENCODING 96
SWIDTH 155 0
DWIDTH 6 0
BBX 4 4 1 11
BITMAP
80
C0
60
30
ENDCHAR
STARTCHAR a
ENCODING 97
SWIDTH 294 0
DWIDTH 11 0
BBX 10 9 1 0
BITMAP
0FC0
3180
6100
4100
8200
8200
8E00
9280
6300
ENDCHAR
STARTCHAR b
ENCODING 98
SWIDTH 247 0
DWIDTH 9 0
BBX 17 27 2 0
BITMAP
000F00
003180
004080
008000
010000
020000
040000
040000
080000
080000
100000
100000
100000
200000
200000
400000
400000
400000
DC0000
A40000
C40000
C40000
840000
880000
880000
A00000
C00000
ENDCHAR
STARTCHAR c
ENCODING 99
SWIDTH 203 0
DWIDTH 7 0
BBX 6 9 1 0
BITMAP
3C
44
80
80
80
80
88
D0
E0
ENDCHAR
STARTCHAR d
ENCODING 100
SWIDTH 285 0
DWIDTH 10 0
BBX 22 27 1 0
BITMAP
00001C
000064
000084
000100
000200
000400
000800
000800
001000
001000
002000
002000
004000
004000
004000
008000
008000
008000
0F0000
310000
430000
420000
860000
860000
8A0000
D68000
630000
ENDCHAR
STARTCHAR e
ENCODING 101
SWIDTH 206 0
DWIDTH 7 0
BBX 6 9 1 0
BITMAP
1C
24
44
58
A0
80
80
88
70
ENDCHAR
STARTCHAR f
ENCODING 102
SWIDTH 156 0
DWIDTH 6 0
BBX 29 36 -10 -9
BITMAP
000000F0
00000118
00000608
00000C00
00000800
00001000
00003000
00002000
00002000
00004000
00004000
00008000
00008000
00018000
00010000
00010000
00030000
00020000
001FE000
00060000
00040000
00040000
000C0000
00080000
00080000
00180000
00100000
00100000
00200000
00200000
00400000
00800000
00800000
81000000
86000000
F8000000
ENDCHAR
STARTCHAR g
ENCODING 103
SWIDTH 210 0
DWIDTH 8 0
BBX 12 19 -4 -9
BITMAP
0010
01E0
0240
0440
0440
0440
0480
0780
0100
0100
0080
6080
8040
8040
8040
8040
4040
6080
1F00
ENDCHAR
STARTCHAR h
ENCODING 104
SWIDTH 292 0
DWIDTH 11 0
BBX 19 27 1 0
BITMAP
0001C0
000660
001820
002000
004000
004000
008000
010000
010000
020000
020000
040000
040000
080000
080000
080000
100000
100000
338000
258000
290000
710000
620000
420000
420000
828000
830000
ENDCHAR
STARTCHAR i
ENCODING 105
SWIDTH 149 0
DWIDTH 5 0
BBX 7 15 1 0
BITMAP
02
04
08
10
00
00
20
60
C0
40
40
80
80
A0
C0
ENDCHAR
STARTCHAR j
ENCODING 106
SWIDTH 136 0
DWIDTH 5 0
BBX 19 24 -11 -9
BITMAP
000020
000040
000080
000100
000000
000000
000300
000F00
000200
000600
000600
000400
000C00
000800
000800
001000
001000
002000
002000
004000
808000
810000
820000
7C0000
ENDCHAR
STARTCHAR k
ENCODING 107
SWIDTH 259 0
DWIDTH 9 0
BBX 19 27 1 0
BITMAP
0003C0
000460
001820
002000
004000
008000
010000
010000
020000
020000
040000
040000
080000
080000
100000
100000
100000
200000
270000
390000
610000
420000
5C0000
500000
880000
890000
860000
ENDCHAR
STARTCHAR l
ENCODING 108
SWIDTH 134 0
DWIDTH 5 0
BBX 16 27 1 0
BITMAP
000E
001F
0021
0040
0080
0100
0100
0200
0400
0400
0800
0800
1000
1000
1000
2000
2000
2000
4000
4000
4000
C000
8000
8000
8000
B000
C000
ENDCHAR
STARTCHAR m
ENCODING 109
SWIDTH 413 0
DWIDTH 15 0
BBX 13 9 1 0
BITMAP
6318
AD68
3188
2110
6310
4220
4220
8428
8430
ENDCHAR
STARTCHAR n
ENCODING 110
SWIDTH 291 0
DWIDTH 10 0
BBX 9 9 1 0
BITMAP
3380
FD80
3100
2100
6200
4200
4200
8280
8300
ENDCHAR
STARTCHAR o
ENCODING 111
SWIDTH 225 0
DWIDTH 8 0
BBX 7 9 1 0
BITMAP
1C
66
46
86
84
84
88
90
60
ENDCHAR
STARTCHAR p
ENCODING 112
SWIDTH 261 0
DWIDTH 9 0
BBX 10 19 -1 -9
BITMAP
0400
1D80
0E40
0840
0840
1040
1080
2080
2300
3C00
6000
4000
4000
4000
C000
8000
8000
8000
E000
ENDCHAR
STARTCHAR q
ENCODING 113
SWIDTH 269 0
DWIDTH 10 0
BBX 9 18 1 -9
BITMAP
0F80
3100
4100
4200
8200
8400
9C00
A800
C800
0800
1800
1000
1000
1000
3000
2000
2000
3800
ENDCHAR
STARTCHAR r
ENCODING 114
SWIDTH 195 0
DWIDTH 7 0
BBX 7 9 1 0
BITMAP
66
BA
20
20
40
40
40
80
80
ENDCHAR
STARTCHAR s
ENCODING 115
SWIDTH 188 0
DWIDTH 7 0
BBX 7 9 0 0
BITMAP
0E
12
10
18
08
04
44
84
78
ENDCHAR
STARTCHAR t
ENCODING 116
SWIDTH 171 0
DWIDTH 6 0
BBX 5 14 2 0
BITMAP
08
10
30
20
20
F8
40
40
80
80
80
90
A0
C0
ENDCHAR
STARTCHAR u
ENCODING 117
SWIDTH 299 0
DWIDTH 11 0
BBX 9 9 1 0
BITMAP
3080
E100
C100
4300
8600
8A00
8A00
9280
E300
ENDCHAR
STARTCHAR v
ENCODING 118
SWIDTH 271 0
DWIDTH 10 0
BBX 8 9 2 0
BITMAP
63
A5
21
23
42
44
48
B0
C0
ENDCHAR
STARTCHAR w
ENCODING 119
SWIDTH 369 0
DWIDTH 13 0
BBX 12 9 1 0
BITMAP
6020
A2D0
2210
2C10
2C10
3420
3420
2440
4780
ENDCHAR
STARTCHAR x
ENCODING 120
SWIDTH 263 0
DWIDTH 9 0
BBX 10 9 0 0
BITMAP
11C0
2A40
0C80
0800
0800
0800
9400
A480
C300
ENDCHAR
STARTCHAR y
ENCODING 121
SWIDTH 280 0
DWIDTH 10 0
BBX 17 18 -7 -9
BITMAP
002080
006080
01C100
004100
008200
008E00
008E00
009400
00E400
000C00
000800
000800
401000
801000
802000
C04000
408000
3F0000
ENDCHAR
STARTCHAR z
ENCODING 122
SWIDTH 238 0
DWIDTH 9 0
BBX 10 9 -1 0
BITMAP
0FC0
3080
0100
0600
0800
1000
2080
6100
9E00
ENDCHAR
STARTCHAR braceleft
ENCODING 123
SWIDTH 291 0
DWIDTH 10 0
BBX 11 25 3 -3
BITMAP
01E0
0200
0400
0400
0400
0400
0400
0400
0800
0800
1800
3000
E000
3000
1000
1000
1000
2000
2000
6000
4000
4000
4000
4000
7800
ENDCHAR
STARTCHAR bar
ENCODING 124
SWIDTH 162 0
DWIDTH 6 0
BBX 1 32 3 -9
BITMAP
80
80
80
80
80
80
80
80
80
80
80
80
80
80
80
80
80
80
80
80
80
80
80
80
80
80
80
80
80
80
80
80
ENDCHAR
STARTCHAR braceright
ENCODING 125
SWIDTH 285 0
DWIDTH 10 0
BBX 10 25 0 -3
BITMAP
0380
0040
0040
0040
0040
00C0
0080
0080
0100
0100
0100
0100
00C0
0180
0100
0200
0200
0200
0200
0200
0600
0400
0400
0C00
F800
ENDCHAR
STARTCHAR asciitilde
ENCODING 126
SWIDTH 383 0
DWIDTH 14 0
BBX 11 4 2 4
BITMAP
0020
3C40
C780
8000
ENDCHAR
STARTCHAR space.dup1
ENCODING 160
SWIDTH 150 0
DWIDTH 5 0
BBX 1 1 0 0
BITMAP
00
ENDCHAR
STARTCHAR exclamdown
ENCODING 161
SWIDTH 189 0
DWIDTH 7 0
BBX 9 19 -2 -10
BITMAP
0180
0100
0000
0000
0200
0400
0400
0800
0800
0800
1000
1000
2000
2000
6000
4000
4000
C000
8000
ENDCHAR
STARTCHAR cent
ENCODING 162
SWIDTH 194 0
DWIDTH 7 0
BBX 8 17 0 -3
BITMAP
02
02
02
0E
37
28
48
50
50
50
64
78
40
40
80
80
80
ENDCHAR
STARTCHAR sterling
ENCODING 163
SWIDTH 344 0
DWIDTH 12 0
BBX 12 11 0 0
BITMAP
0070
01B0
0210
0200
0200
0FC0
1400
0400
0800
7C20
E7C0
ENDCHAR
STARTCHAR currency
ENCODING 164
SWIDTH 344 0
DWIDTH 12 0
BBX 12 11 0 0
BITMAP
1010
17E0
0840
1040
2040
2040
2040
3080
3900
4680
8080
ENDCHAR
STARTCHAR yen
ENCODING 165
SWIDTH 309 0
DWIDTH 11 0
BBX 11 11 1 0
BITMAP
60E0
9300
1400
1800
1600
7800
9000
FE00
2000
2000
3000
ENDCHAR
STARTCHAR brokenbar
ENCODING 166
SWIDTH 162 0
DWIDTH 6 0
BBX 1 32 3 -9
BITMAP
80
80
80
80
80
80
80
80
80
80
80
80
00
00
00
00
00
00
00
00
80
80
80
80
80
80
80
80
80
80
80
80
ENDCHAR
STARTCHAR section
ENCODING 167
SWIDTH 395 0
DWIDTH 14 0
BBX 19 28 -2 -9
BITMAP
000300
001DC0
007020
00A020
00A020
012040
012000
012000
012000
012000
012000
019000
019000
009000
009000
00C800
00C800
004800
006800
006800
406800
406800
807000
807000
806000
C0E000
718000
1E0000
ENDCHAR
STARTCHAR dieresis
ENCODING 168
SWIDTH 174 0
DWIDTH 6 0
BBX 5 2 1 11
BITMAP
D8
98
ENDCHAR
STARTCHAR copyright
ENCODING 169
SWIDTH 331 0
DWIDTH 12 0
BBX 9 9 2 4
BITMAP
3F00
4E80
B280
A080
A080
A480
9D00
4200
1400
ENDCHAR
STARTCHAR ordfeminine
ENCODING 170
SWIDTH 226 0
DWIDTH 8 0
BBX 5 4 2 7
BITMAP
78
90
90
F8
ENDCHAR
STARTCHAR guillemotleft
ENCODING 171
SWIDTH 289 0
DWIDTH 10 0
BBX 10 9 1 0
BITMAP
0440
0980
1300
6400
8800
DC00
6600
3300
1300
ENDCHAR
STARTCHAR logicalnot
ENCODING 172
SWIDTH 265 0
DWIDTH 10 0
BBX 8 5 0 4
BITMAP
FF
01
03
02
02
ENDCHAR
STARTCHAR registered
ENCODING 174
SWIDTH 331 0
DWIDTH 12 0
BBX 9 9 2 4
BITMAP
1E00
6100
BC80
9480
A880
A880
A500
4200
3C00
ENDCHAR
STARTCHAR degree
ENCODING 176
SWIDTH 104 0
DWIDTH 4 0
BBX 5 4 2 10
BITMAP
78
88
D8
F0
ENDCHAR
STARTCHAR plusminus
ENCODING 177
SWIDTH 301 0
DWIDTH 11 0
BBX 10 10 0 0
BITMAP
0100
0200
0200
0200
3FC0
0400
0400
0800
0000
FF00
ENDCHAR
STARTCHAR twosuperior
ENCODING 178
SWIDTH 215 0
DWIDTH 8 0
BBX 5 6 2 5
BITMAP
38
48
08
10
60
F8
ENDCHAR
STARTCHAR threesuperior
ENCODING 179
SWIDTH 190 0
DWIDTH 7 0
BBX 4 6 2 5
BITMAP
70
10
20
50
10
E0
ENDCHAR
STARTCHAR acute
ENCODING 180
SWIDTH 157 0
DWIDTH 6 0
BBX 4 3 1 11
BITMAP
30
60
80
ENDCHAR
STARTCHAR mu
ENCODING 181
SWIDTH 324 0
DWIDTH 12 0
BBX 12 14 -1 -5
BITMAP
0310
0220
0460
0C40
08C0
1940
1A40
2CD0
2860
2000
4000
4000
4000
C000
ENDCHAR
STARTCHAR paragraph
ENCODING 182
SWIDTH 392 0
DWIDTH 14 0
BBX 18 20 -3 -9
BITMAP
0007C0
003900
007B00
00F300
01F200
03F200
03E600
03E400
03E400
01EC00
00C800
004800
005800
009000
00B000
C12000
814000
828000
C70000
7C0000
ENDCHAR
STARTCHAR periodcentered
ENCODING 183
SWIDTH 112 0
DWIDTH 4 0
BBX 2 3 1 4
BITMAP
40
C0
80
ENDCHAR
STARTCHAR cedilla
ENCODING 184
SWIDTH 115 0
DWIDTH 4 0
BBX 2 4 1 -4
BITMAP
40
40
40
80
ENDCHAR
STARTCHAR onesuperior
ENCODING 185
SWIDTH 174 0
DWIDTH 6 0
BBX 3 6 2 5
BITMAP
E0
20
40
40
80
80
ENDCHAR
STARTCHAR ordmasculine
ENCODING 186
SWIDTH 178 0
DWIDTH 6 0
BBX 4 4 2 7
BITMAP
70
90
A0
C0
ENDCHAR
STARTCHAR guillemotright
ENCODING 187
SWIDTH 276 0
DWIDTH 10 0
BBX 9 9 0 0
BITMAP
2400
3600
1B00
0D80
0480
1B00
2400
4800
9000
ENDCHAR
STARTCHAR onequarter
ENCODING 188
SWIDTH 435 0
DWIDTH 16 0
BBX 13 14 2 -2
BITMAP
0030
0820
7040
1080
2108
2210
4470
48A0
4B20
13F0
2040
4040
8000
8000
ENDCHAR
STARTCHAR onehalf
ENCODING 189
SWIDTH 434 0
DWIDTH 16 0
BBX 13 14 2 -2
BITMAP
0020
0820
7040
1080
2130
2258
4488
4808
4810
1060
2090
43E0
8000
8000
ENDCHAR
STARTCHAR threequarters
ENCODING 190
SWIDTH 476 0
DWIDTH 17 0
BBX 15 14 2 -2
BITMAP
0008
3810
4820
0840
3882
088C
0918
9228
64D0
08F8
1020
1020
2000
4000
ENDCHAR
STARTCHAR questiondown
ENCODING 191
SWIDTH 285 0
DWIDTH 10 0
BBX 12 19 -2 -10
BITMAP
0010
0030
0000
0000
00C0
0040
0040
0080
0300
0C00
1000
6000
4000
8000
8000
8100
C200
FC00
7000
ENDCHAR
STARTCHAR Agrave
ENCODING 192
SWIDTH 996 0
DWIDTH 36 0
BBX 34 27 2 0
BITMAP
0000000200
0000000700
00000000C0
0000000000
00000FF000
0000301F00
0000C001C0
0001000280
0001000580
0002000900
0002001200
0000002200
0000004600
0000008400
0000010400
0000020C00
0000FFF800
0000080800
4000100800
8000200800
8000400800
8000801800
8001001800
C006000840
E018000880
7FE0000F00
3F00000600
ENDCHAR
STARTCHAR Aacute
ENCODING 193
SWIDTH 996 0
DWIDTH 36 0
BBX 35 27 2 0
BITMAP
0000000060
0000000080
0000000300
0000000000
00000FF000
0000301F00
0000C001C0
0001000280
0001000580
0002000900
0002001200
0000002200
0000004600
0000008400
0000010400
0000020C00
0000FFF800
0000080800
4000100800
8000200800
8000400800
8000801800
8001001800
C006000840
E018000880
7FE0000F00
3F00000600
ENDCHAR
STARTCHAR Acircumflex
ENCODING 194
SWIDTH 996 0
DWIDTH 36 0
BBX 36 28 2 0
BITMAP
0000000040
00000000E0
0000000330
0000000000
0000000000
00000FF000
0000301F00
0000C001C0
0001000280
0001000580
0002000900
0002001200
0000002200
0000004600
0000008400
0000010400
0000020C00
0000FFF800
0000080800
4000100800
8000200800
8000400800
8000801800
8001001800
C006000840
E018000880
7FE0000F00
3F00000600
ENDCHAR
STARTCHAR Atilde
ENCODING 195
SWIDTH 996 0
DWIDTH 36 0
BBX 37 26 2 0
BITMAP
0000000388
0000000470
0000000000
00000FF000
0000301F00
0000C001C0
0001000280
0001000580
0002000900
0002001200
0000002200
0000004600
0000008400
0000010400
0000020C00
0000FFF800
0000080800
4000100800
8000200800
8000400800
8000801800
8001001800
C006000840
E018000880
7FE0000F00
3F00000600
ENDCHAR
STARTCHAR Adieresis
ENCODING 196
SWIDTH 996 0
DWIDTH 36 0
BBX 36 27 2 0
BITMAP
00000000B0
00000001A0
0000000000
0000000000
00000FF000
0000301F00
0000C001C0
0001000280
0001000580
0002000900
0002001200
0000002200
0000004600
0000008400
0000010400
0000020C00
0000FFF800
0000080800
4000100800
8000200800
8000400800
8000801800
8001001800
C006000840
E018000880
7FE0000F00
3F00000600
ENDCHAR
STARTCHAR Aring
ENCODING 197
SWIDTH 996 0
DWIDTH 36 0
BBX 35 28 2 0
BITMAP
0000000040
00000001A0
00000000A0
00000000C0
0000000000
00000FF000
0000301F00
0000C001C0
0001000280
0001000580
0002000900
0002001200
0000002200
0000004600
0000008400
0000010400
0000020C00
0000FFF800
0000080800
4000100800
8000200800
8000400800
8000801800
8001001800
C006000840
E018000880
7FE0000F00
3F00000600
ENDCHAR
STARTCHAR AE
ENCODING 198
SWIDTH 1271 0
DWIDTH 46 0
BBX 46 23 2 0
BITMAP
00000FF003F0
0000301F0C18
00004001D00C
000080019008
000100069008
000100091000
000100111800
000000220C00
000000420E00
000000827000
000001038000
000002060000
00007FFE0000
000004040000
400008040000
400010040000
800020040020
800040040020
C00100040020
C00200060020
600C00020040
7FF000030180
1F800000FE00
ENDCHAR
STARTCHAR Ccedilla
ENCODING 199
SWIDTH 557 0
DWIDTH 20 0
BBX 21 27 2 -4
BITMAP
001FE0
00E038
030018
040010
080010
100000
300000
200000
600000
400000
C00000
C00000
C00000
C00000
C00000
C00000
E00080
600080
600080
300100
180300
0E0600
01E800
004000
004000
008000
010000
ENDCHAR
STARTCHAR Egrave
ENCODING 200
SWIDTH 463 0
DWIDTH 17 0
BBX 17 27 1 0
BITMAP
000800
001C00
000300
000000
003E00
00C180
010080
020080
020100
020000
030000
018000
01E000
060000
180000
200000
600000
400000
C00000
C00000
C00200
C00200
C00200
E00200
600400
301800
0FE000
ENDCHAR
STARTCHAR Eacute
ENCODING 201
SWIDTH 463 0
DWIDTH 17 0
BBX 17 27 1 0
BITMAP
000300
000600
000800
001000
003E00
00C180
010080
020080
020100
020000
030000
018000
01E000
060000
180000
200000
600000
400000
C00000
C00000
C00200
C00200
C00200
E00200
600400
301800
0FE000
ENDCHAR
STARTCHAR Ecircumflex
ENCODING 202
SWIDTH 463 0
DWIDTH 17 0
BBX 17 28 1 0
BITMAP
000400
000E00
003300
000000
000000
003E00
00C180
010080
020080
020100
020000
030000
018000
01E000
060000
180000
200000
600000
400000
C00000
C00000
C00200
C00200
C00200
E00200
600400
301800
0FE000
ENDCHAR
STARTCHAR Edieresis
ENCODING 203
SWIDTH 463 0
DWIDTH 17 0
BBX 17 27 1 0
BITMAP
000B00
001A00
000000
000000
003E00
00C180
010080
020080
020100
020000
030000
018000
01E000
060000
180000
200000
600000
400000
C00000
C00000
C00200
C00200
C00200
E00200
600400
301800
0FE000
ENDCHAR
STARTCHAR Igrave
ENCODING 204
SWIDTH 514 0
DWIDTH 19 0
BBX 25 27 0 0
BITMAP
00002000
00005800
00000400
00000000
00000380
00001F00
00006400
00010C00
00020800
00041800
00081000
00083000
00103000
00103000
00102000
00106000
00106000
00104000
0010C000
00088000
30074000
40018000
40020000
C0040000
40080000
70300000
3FC00000
ENDCHAR
STARTCHAR Iacute
ENCODING 205
SWIDTH 514 0
DWIDTH 19 0
BBX 25 27 0 0
BITMAP
00000600
00001800
00002000
00000000
00000380
00001F00
00006400
00010C00
00020800
00041800
00081000
00083000
00103000
00103000
00102000
00106000
00106000
00104000
0010C000
00088000
30074000
40018000
40020000
C0040000
40080000
70300000
3FC00000
ENDCHAR
STARTCHAR Icircumflex
ENCODING 206
SWIDTH 514 0
DWIDTH 19 0
BBX 25 28 0 0
BITMAP
00000400
00000E00
00003300
00000000
00000000
00000380
00001F00
00006400
00010C00
00020800
00041800
00081000
00083000
00103000
00103000
00102000
00106000
00106000
00104000
0010C000
00088000
30074000
40018000
40020000
C0040000
40080000
70300000
3FC00000
ENDCHAR
STARTCHAR Idieresis
ENCODING 207
SWIDTH 514 0
DWIDTH 19 0
BBX 25 27 0 0
BITMAP
00000B00
00001A00
00000000
00000000
00000380
00001F00
00006400
00010C00
00020800
00041800
00081000
00083000
00103000
00103000
00102000
00106000
00106000
00104000
0010C000
00088000
30074000
40018000
40020000
C0040000
40080000
70300000
3FC00000
ENDCHAR
STARTCHAR Eth
ENCODING 208
SWIDTH 800 0
DWIDTH 29 0
BBX 27 24 1 0
BITMAP
00000200
007F0C00
0181F000
02003000
04004C00
0800C600
08008300
08018100
00010080
000300C0
00030040
00020040
00060060
007FE020
00040020
000C0020
000C0020
00180020
00180040
00300040
3E200080
C1C00100
81380200
FE07FC00
ENDCHAR
STARTCHAR Ntilde
ENCODING 209
SWIDTH 796 0
DWIDTH 29 0
BBX 44 26 -5 0
BITMAP
0000000E2000
00000013C000
000000000000
0007C00000E0
0018740003F0
00201C000610
004006000410
00000B000800
000009001000
000008801000
000008C02000
000008404000
000010204000
000010304000
000010108000
000020188000
600020090000
400040090000
8000400D0000
800080050000
800100060000
C00200060000
C00400020000
700800020000
3FF000020000
0FC000020000
ENDCHAR
STARTCHAR Ograve
ENCODING 210
SWIDTH 608 0
DWIDTH 22 0
BBX 21 27 2 0
BITMAP
001800
000C00
000300
000000
003F00
00C0C0
030060
040030
080010
100018
300008
200008
600008
600008
400008
C00008
C00010
C00010
C00010
C00020
C00020
E00040
600080
700100
380200
1E0C00
07F000
ENDCHAR
STARTCHAR Oacute
ENCODING 211
SWIDTH 608 0
DWIDTH 22 0
BBX 21 27 2 0
BITMAP
000100
000600
000800
000000
003F00
00C0C0
030060
040030
080010
100018
300008
200008
600008
600008
400008
C00008
C00010
C00010
C00010
C00020
C00020
E00040
600080
700100
380200
1E0C00
07F000
ENDCHAR
STARTCHAR Ocircumflex
ENCODING 212
SWIDTH 608 0
DWIDTH 22 0
BBX 21 28 2 0
BITMAP
000200
000700
001980
000000
000000
003F00
00C0C0
030060
040030
080010
100018
300008
200008
600008
600008
400008
C00008
C00010
C00010
C00010
C00020
C00020
E00040
600080
700100
380200
1E0C00
07F000
ENDCHAR
STARTCHAR Otilde
ENCODING 213
SWIDTH 608 0
DWIDTH 22 0
BBX 21 26 2 0
BITMAP
000C40
003380
000000
003F00
00C0C0
030060
040030
080010
100018
300008
200008
600008
600008
400008
C00008
C00010
C00010
C00010
C00020
C00020
E00040
600080
700100
380200
1E0C00
07F000
ENDCHAR
STARTCHAR Odieresis
ENCODING 214
SWIDTH 608 0
DWIDTH 22 0
BBX 21 26 2 0
BITMAP
000580
000D00
000000
003F00
00C0C0
030060
040030
080010
100018
300008
200008
600008
600008
400008
C00008
C00010
C00010
C00010
C00020
C00020
E00040
600080
700100
380200
1E0C00
07F000
ENDCHAR
STARTCHAR multiply
ENCODING 215
SWIDTH 301 0
DWIDTH 11 0
BBX 10 8 1 1
BITMAP
20C0
1100
1A00
0C00
1400
2200
4200
8200
ENDCHAR
STARTCHAR Oslash
ENCODING 216
SWIDTH 605 0
DWIDTH 22 0
BBX 21 25 2 -1
BITMAP
000020
003F40
00C0C0
0300E0
040130
080110
100218
100408
200808
600808
601008
402008
C04008
C04010
C08010
C10010
C10020
C20020
E40040
680080
780100
380200
3E0C00
47F000
800000
ENDCHAR
STARTCHAR Ugrave
ENCODING 217
SWIDTH 717 0
DWIDTH 26 0
BBX 28 26 1 0
BITMAP
00003000
00000C00
00000000
03F80030
0C1E0020
10040060
60080040
401000C0
80200080
80400180
80400100
80800300
80800300
81000600
81000E00
03000E00
02001400
02002400
06002C00
06004800
06008800
06010800
06030880
06040880
03080F00
01F00E00
ENDCHAR
STARTCHAR Uacute
ENCODING 218
SWIDTH 717 0
DWIDTH 26 0
BBX 28 26 1 0
BITMAP
00000700
00000800
00001000
03F80030
0C1E0020
10040060
60080040
401000C0
80200080
80400180
80400100
80800300
80800300
81000600
81000E00
03000E00
02001400
02002400
06002C00
06004800
06008800
06010800
06030880
06040880
03080F00
01F00E00
ENDCHAR
STARTCHAR Ucircumflex
ENCODING 219
SWIDTH 718 0
DWIDTH 26 0
BBX 28 27 1 0
BITMAP
00000800
00001400
00002300
00000000
03F80030
0C1E0020
10040060
60080040
40100080
80200080
80400180
80400100
80800300
80800200
81000600
81000600
03000C00
02000C00
02001400
06002400
06004800
06004800
06008800
06010880
06020880
030C0F00
01F00E00
ENDCHAR
STARTCHAR Udieresis
ENCODING 220
SWIDTH 718 0
DWIDTH 26 0
BBX 28 27 1 0
BITMAP
00001600
00003400
00000000
00000000
03F80030
0C1E0020
10040060
60080040
401000C0
80200080
80400180
80400100
80800300
80800300
81000600
81000E00
03000E00
02001400
02002400
06002C00
06004800
06008800
06010800
06030880
06040880
03080F00
01F00E00
ENDCHAR
STARTCHAR Yacute
ENCODING 221
SWIDTH 662 0
DWIDTH 24 0
BBX 32 31 0 -5
BITMAP
000000C0
00000180
00000200
00070003
00098002
00318006
0001800C
0001800C
00010018
00030018
00030030
00020030
00020060
000200E0
000400C0
00040180
00040280
02040500
1C040900
20043200
4003C400
80000400
80000800
80001000
80002000
80004000
80008000
C0010000
60020000
380C0000
1FD00000
ENDCHAR
STARTCHAR Thorn
ENCODING 222
SWIDTH 745 0
DWIDTH 27 0
BBX 26 25 2 0
BITMAP
00000080
00000300
00000400
00000800
00000800
00001000
0000FC00
00033700
00042180
000821C0
001060C0
000060C0
000040C0
0000C0C0
0000C0C0
60008180
80018100
80030200
8003FC00
80020000
80040000
80080000
40100000
70600000
1F800000
ENDCHAR
STARTCHAR germandbls
ENCODING 223
SWIDTH 304 0
DWIDTH 11 0
BBX 31 35 -12 -9
BITMAP
0000003C
000000C6
00000302
00000402
00000802
00001006
00001004
00002008
00002018
00002020
000040C0
00004180
00008600
00008C00
00009800
00009000
00013000
00012000
00013000
00011000
00021800
00020800
00020C00
00068C00
00048800
0004F800
00080000
00080000
00100000
00100000
00200000
00400000
80400000
41800000
7E000000
ENDCHAR
STARTCHAR agrave
ENCODING 224
SWIDTH 294 0
DWIDTH 11 0
BBX 10 15 1 0
BITMAP
0400
0600
0300
0080
0000
0000
0FC0
3180
6100
4100
8200
8200
8E00
9280
6300
ENDCHAR
STARTCHAR aacute
ENCODING 225
SWIDTH 294 0
DWIDTH 11 0
BBX 10 14 1 0
BITMAP
0080
0100
0200
0400
0000
0FC0
3180
6100
4100
8200
8200
8E00
9280
6300
ENDCHAR
STARTCHAR acircumflex
ENCODING 226
SWIDTH 294 0
DWIDTH 11 0
BBX 10 14 1 0
BITMAP
0200
0D80
0000
0000
0000
0FC0
3180
6100
4100
8200
8200
8E00
9280
6300
ENDCHAR
STARTCHAR atilde
ENCODING 227
SWIDTH 294 0
DWIDTH 11 0
BBX 10 14 1 0
BITMAP
0440
1B80
1000
0000
0000
0FC0
3180
6100
4100
8200
8200
8E00
9280
6300
ENDCHAR
STARTCHAR adieresis
ENCODING 228
SWIDTH 284 0
DWIDTH 10 0
BBX 10 13 1 0
BITMAP
06C0
0480
0000
0000
0FC0
3180
6100
4100
8200
8200
8E00
9280
6300
ENDCHAR
STARTCHAR aring
ENCODING 229
SWIDTH 294 0
DWIDTH 11 0
BBX 10 14 1 0
BITMAP
0700
0580
0700
0000
0000
0FC0
3180
6100
4100
8200
8200
8E00
9280
6300
ENDCHAR
STARTCHAR ae
ENCODING 230
SWIDTH 363 0
DWIDTH 13 0
BBX 12 10 1 0
BITMAP
0080
1F70
2390
4330
82C0
8700
8E00
8A00
F220
63C0
ENDCHAR
STARTCHAR ccedilla
ENCODING 231
SWIDTH 203 0
DWIDTH 7 0
BBX 6 14 1 -5
BITMAP
3C
44
80
80
80
80
88
90
E0
40
40
40
40
80
ENDCHAR
STARTCHAR egrave
ENCODING 232
SWIDTH 206 0
DWIDTH 7 0
BBX 7 15 1 0
BITMAP
08
1C
0C
02
00
00
1C
24
44
58
A0
80
80
88
70
ENDCHAR
STARTCHAR eacute
ENCODING 233
SWIDTH 206 0
DWIDTH 7 0
BBX 8 14 1 0
BITMAP
03
06
08
00
00
1C
24
44
58
A0
80
80
88
70
ENDCHAR
STARTCHAR ecircumflex
ENCODING 234
SWIDTH 206 0
DWIDTH 7 0
BBX 7 14 1 0
BITMAP
08
36
00
00
00
1C
24
44
58
A0
80
80
88
70
ENDCHAR
STARTCHAR edieresis
ENCODING 235
SWIDTH 206 0
DWIDTH 7 0
BBX 8 13 1 0
BITMAP
09
1B
00
00
1C
24
44
58
A0
80
80
88
70
ENDCHAR
STARTCHAR igrave
ENCODING 236
SWIDTH 149 0
DWIDTH 5 0
BBX 6 15 1 0
BITMAP
20
30
18
08
04
00
20
60
C0
40
40
80
80
A0
C0
ENDCHAR
STARTCHAR iacute
ENCODING 237
SWIDTH 149 0
DWIDTH 5 0
BBX 7 14 1 0
BITMAP
06
0C
10
00
00
20
60
C0
40
40
80
80
A0
C0
ENDCHAR
STARTCHAR icircumflex
ENCODING 238
SWIDTH 149 0
DWIDTH 5 0
BBX 6 14 1 0
BITMAP
18
2C
40
00
00
20
60
C0
40
40
80
80
A0
C0
ENDCHAR
STARTCHAR idieresis
ENCODING 239
SWIDTH 149 0
DWIDTH 5 0
BBX 7 13 1 0
BITMAP
12
36
00
00
20
60
C0
40
40
80
80
A0
C0
ENDCHAR
STARTCHAR eth
ENCODING 240
SWIDTH 234 0
DWIDTH 8 0
BBX 7 24 1 0
BITMAP
40
40
80
C0
40
60
2C
10
38
C8
04
04
04
02
02
1E
62
42
82
84
84
88
D8
60
ENDCHAR
STARTCHAR ntilde
ENCODING 241
SWIDTH 291 0
DWIDTH 10 0
BBX 10 14 1 0
BITMAP
0440
1B80
1000
0000
0000
3380
FD80
3100
2100
6200
4200
4200
8280
8300
ENDCHAR
STARTCHAR ograve
ENCODING 242
SWIDTH 225 0
DWIDTH 8 0
BBX 8 15 1 0
BITMAP
08
0C
06
02
01
00
1C
66
46
86
84
84
88
90
60
ENDCHAR
STARTCHAR oacute
ENCODING 243
SWIDTH 225 0
DWIDTH 8 0
BBX 8 14 1 0
BITMAP
03
06
08
00
00
1C
66
46
86
84
84
88
90
60
ENDCHAR
STARTCHAR ocircumflex
ENCODING 244
SWIDTH 225 0
DWIDTH 8 0
BBX 8 14 1 0
BITMAP
04
1B
00
00
00
1C
66
46
86
84
84
88
90
60
ENDCHAR
STARTCHAR otilde
ENCODING 245
SWIDTH 225 0
DWIDTH 8 0
BBX 9 14 1 0
BITMAP
0880
3700
2000
0000
0000
1C00
6600
4600
8600
8400
8400
8800
9000
6000
ENDCHAR
STARTCHAR odieresis
ENCODING 246
SWIDTH 225 0
DWIDTH 8 0
BBX 8 13 1 0
BITMAP
09
1B
00
00
1C
66
46
86
84
84
88
90
60
ENDCHAR
STARTCHAR divide
ENCODING 247
SWIDTH 301 0
DWIDTH 11 0
BBX 8 6 2 2
BITMAP
08
00
FF
00
00
30
ENDCHAR
STARTCHAR oslash
ENCODING 248
SWIDTH 225 0
DWIDTH 8 0
BBX 9 11 0 -1
BITMAP
0080
0F00
1300
2500
4D00
4900
5200
7200
6400
7800
8000
ENDCHAR
STARTCHAR ugrave
ENCODING 249
SWIDTH 299 0
DWIDTH 11 0
BBX 9 15 1 0
BITMAP
0200
0600
0300
0080
0000
0000
3080
E100
C100
4300
8600
8A00
8A00
9280
E300
ENDCHAR
STARTCHAR uacute
ENCODING 250
SWIDTH 299 0
DWIDTH 11 0
BBX 10 14 1 0
BITMAP
00C0
0180
0200
0000
0000
3080
E100
C100
4300
8600
8A00
8A00
9280
E300
ENDCHAR
STARTCHAR ucircumflex
ENCODING 251
SWIDTH 299 0
DWIDTH 11 0
BBX 9 14 1 0
BITMAP
0300
0580
0800
0000
0000
3080
E100
C100
4300
8600
8A00
8A00
9280
E300
ENDCHAR
STARTCHAR udieresis
ENCODING 252
SWIDTH 299 0
DWIDTH 11 0
BBX 10 13 1 0
BITMAP
06C0
0480
0000
0000
3080
E100
C100
4300
8600
8A00
8A00
9280
E300
ENDCHAR
STARTCHAR yacute
ENCODING 253
SWIDTH 280 0
DWIDTH 10 0
BBX 18 23 -7 -9
BITMAP
0000C0
000180
000200
000000
000000
002080
006080
01C100
004100
008200
008E00
008E00
009400
00E400
000C00
000800
000800
401000
801000
802000
C04000
408000
3F0000
ENDCHAR
STARTCHAR thorn
ENCODING 254
SWIDTH 261 0
DWIDTH 9 0
BBX 10 26 -1 -9
BITMAP
0180
0700
0100
0100
0200
0200
0400
0400
0D80
0EC0
08C0
10C0
1080
1080
2100
2200
3C00
4000
4000
4000
4000
8000
8000
8000
8000
E000
ENDCHAR
STARTCHAR ydieresis
ENCODING 255
SWIDTH 280 0
DWIDTH 10 0
BBX 18 22 -7 -9
BITMAP
0006C0
000480
000000
000000
002080
006080
01C100
004100
008200
008E00
008E00
009400
00E400
000C00
000800
000800
401000
801000
802000
C04000
408000
3F0000
ENDCHAR
STARTCHAR dotlessi
ENCODING 305
SWIDTH 149 0
DWIDTH 5 0
BBX 3 9 1 0
BITMAP
20
60
C0
40
40
80
80
A0
C0
ENDCHAR
STARTCHAR Lslash
ENCODING 321
SWIDTH 657 0
DWIDTH 24 0
BBX 25 23 1 0
BITMAP
00000F00
00003F80
00006180
0000C080
00008080
00010100
00010000
00020000
00020000
00066000
00078000
003C0000
00CC0000
000C0000
00080000
00180000
00100000
00100000
00200000
7F600400
80C00400
C1380800
7E07F000
ENDCHAR
STARTCHAR lslash
ENCODING 322
SWIDTH 134 0
DWIDTH 5 0
BBX 16 27 1 0
BITMAP
000E
001F
0022
0040
0080
0100
0100
0200
0400
0400
0800
0F00
3000
5000
1000
2000
2000
2000
4000
4000
4000
C000
8000
8000
8000
B000
C000
ENDCHAR
STARTCHAR OE
ENCODING 338
SWIDTH 827 0
DWIDTH 30 0
BBX 29 23 2 0
BITMAP
003F03E0
00C1C818
03007008
04002010
08002010
10002000
30003000
20001800
60001E00
60006000
40018000
C0020000
C0060000
C0040000
C00C0000
C00C0000
C00C0020
E00C0020
600C0020
700E0020
38060040
1E0F0180
07F0FE00
ENDCHAR
STARTCHAR oe
ENCODING 339
SWIDTH 345 0
DWIDTH 12 0
BBX 11 9 1 0
BITMAP
1CE0
2520
4220
82C0
8500
8400
8400
DE40
6380
ENDCHAR
STARTCHAR Scaron
ENCODING 352
SWIDTH 480 0
DWIDTH 17 0
BBX 17 27 2 0
BITMAP
001080
000D00
000600
000000
001F00
006180
008080
008080
008100
008000
00C000
00C000
006000
002000
003000
001800
001800
000800
000C00
400400
800400
800400
800400
800800
C01000
702000
1FC000
ENDCHAR
STARTCHAR scaron
ENCODING 353
SWIDTH 188 0
DWIDTH 7 0
BBX 9 15 0 0
BITMAP
1980
0A00
0600
0000
0000
0000
0E00
1200
1000
1800
0800
0400
4400
8400
7800
ENDCHAR
STARTCHAR Ydieresis
ENCODING 376
SWIDTH 662 0
DWIDTH 24 0
BBX 32 32 0 -5
BITMAP
000002C0
00000680
00000000
00000000
00070003
00098002
00318006
0001800C
0001800C
00010018
00030018
00030030
00020030
00020060
000200E0
000400C0
00040180
00040280
02040500
1C040900
20043200
4003C400
80000400
80000800
80001000
80002000
80004000
80008000
C0010000
60020000
380C0000
1FD00000
ENDCHAR
STARTCHAR Zcaron
ENCODING 381
SWIDTH 625 0
DWIDTH 23 0
BBX 24 27 2 0
BITMAP
000210
0001A0
0000C0
000000
003F80
004071
00800E
01000C
010010
010020
000040
000080
000100
000200
000400
000800
001000
006000
008000
010000
020010
040010
080020
100020
3E00C0
7FFF80
83FE00
ENDCHAR
STARTCHAR zcaron
ENCODING 382
SWIDTH 248 0
DWIDTH 9 0
BBX 11 15 -1 0
BITMAP
0660
0180
0080
0000
0000
0000
0FC0
3080
0300
0400
0800
1000
2080
6100
9E00
ENDCHAR
STARTCHAR florin
ENCODING 402
SWIDTH 214 0
DWIDTH 8 0
BBX 12 14 -3 -3
BITMAP
0070
0090
0100
0100
0200
0200
0FE0
0200
0400
0400
0400
0800
1000
E000
ENDCHAR
STARTCHAR circumflex
ENCODING 710
SWIDTH 196 0
DWIDTH 7 0
BBX 6 2 0 12
BITMAP
10
EC
ENDCHAR
STARTCHAR caron
ENCODING 711
SWIDTH 196 0
DWIDTH 7 0
BBX 6 3 1 12
BITMAP
8C
50
20
ENDCHAR
STARTCHAR breve
ENCODING 728
SWIDTH 198 0
DWIDTH 7 0
BBX 5 3 1 12
BITMAP
88
88
70
ENDCHAR
STARTCHAR dotaccent
ENCODING 729
SWIDTH 89 0
DWIDTH 4 0
BBX 2 3 1 11
BITMAP
40
C0
80
ENDCHAR
STARTCHAR ring
ENCODING 730
SWIDTH 117 0
DWIDTH 4 0
BBX 4 3 0 11
BITMAP
70
90
E0
ENDCHAR
STARTCHAR ogonek
ENCODING 731
SWIDTH 124 0
DWIDTH 4 0
BBX 3 4 1 -4
BITMAP
40
80
80
E0
ENDCHAR
STARTCHAR tilde
ENCODING 732
SWIDTH 222 0
DWIDTH 8 0
BBX 6 3 1 11
BITMAP
64
B8
80
ENDCHAR
STARTCHAR hungarumlaut
ENCODING 733
SWIDTH 253 0
DWIDTH 9 0
BBX 8 3 0 11
BITMAP
33
66
8C
ENDCHAR
STARTCHAR mu.dup2
ENCODING 956
SWIDTH 324 0
DWIDTH 12 0
BBX 12 14 -1 -5
BITMAP
0310
0220
0460
0C40
08C0
1940
1A40
2CD0
2860
2000
4000
4000
4000
C000
ENDCHAR
STARTCHAR endash
ENCODING 8211
SWIDTH 500 0
DWIDTH 18 0
BBX 16 1 1 5
BITMAP
FFFF
ENDCHAR
STARTCHAR emdash
ENCODING 8212
SWIDTH 1000 0
DWIDTH 36 0
BBX 34 1 1 5
BITMAP
FFFFFFFFC0
ENDCHAR
STARTCHAR quoteleft
ENCODING 8216
SWIDTH 87 0
DWIDTH 3 0
BBX 4 6 2 9
BITMAP
30
40
40
C0
C0
80
ENDCHAR
STARTCHAR quoteright
ENCODING 8217
SWIDTH 87 0
DWIDTH 3 0
BBX 4 6 1 9
BITMAP
10
30
30
20
40
80
ENDCHAR
STARTCHAR quotesinglbase
ENCODING 8218
SWIDTH 112 0
DWIDTH 4 0
BBX 3 5 0 -3
BITMAP
20
60
40
40
80
ENDCHAR
STARTCHAR quotedblleft
ENCODING 8220
SWIDTH 167 0
DWIDTH 5 0
BBX 6 6 2 9
BITMAP
24
48
90
90
90
90
ENDCHAR
STARTCHAR quotedblright
ENCODING 8221
SWIDTH 167 0
DWIDTH 6 0
BBX 6 6 2 9
BITMAP
24
24
24
48
48
90
ENDCHAR
STARTCHAR quotedblbase
ENCODING 8222
SWIDTH 192 0
DWIDTH 7 0
BBX 7 5 -1 -3
BITMAP
36
36
36
24
D8
ENDCHAR
STARTCHAR dagger
ENCODING 8224
SWIDTH 185 0
DWIDTH 7 0
BBX 8 22 1 -3
BITMAP
04
04
04
08
08
08
10
FF
10
10
20
20
20
40
40
40
40
80
80
80
80
80
ENDCHAR
STARTCHAR daggerdbl
ENCODING 8225
SWIDTH 185 0
DWIDTH 7 0
BBX 10 22 -1 -3
BITMAP
0100
0100
0100
0200
0200
0200
0400
3FC0
0400
0400
0800
0800
0800
1000
1000
FF00
1000
2000
2000
2000
2000
4000
ENDCHAR
STARTCHAR bullet
ENCODING 8226
SWIDTH 207 0
DWIDTH 7 0
BBX 4 4 2 3
BITMAP
70
F0
F0
E0
ENDCHAR
STARTCHAR ellipsis
ENCODING 8230
SWIDTH 376 0
DWIDTH 14 0
BBX 12 2 1 0
BITMAP
4630
C420
ENDCHAR
STARTCHAR perthousand
ENCODING 8240
SWIDTH 571 0
DWIDTH 21 0
BBX 19 17 1 -3
BITMAP
001000
001000
002000
384000
488000
888000
890000
8A70C0
F49360
E51220
091420
111440
312440
21C380
400000
800000
800000
ENDCHAR
STARTCHAR guilsinglleft
ENCODING 8249
SWIDTH 189 0
DWIDTH 7 0
BBX 6 9 0 0
BITMAP
04
08
10
60
80
C0
60
30
10
ENDCHAR
STARTCHAR guilsinglright
ENCODING 8250
SWIDTH 176 0
DWIDTH 6 0
BBX 6 9 -1 0
BITMAP
20
30
18
0C
04
18
20
40
80
ENDCHAR
STARTCHAR fraction
ENCODING 8260
SWIDTH 220 0
DWIDTH 8 0
BBX 13 14 -1 -2
BITMAP
0018
0020
0040
0080
0100
0100
0200
0400
0800
1000
2000
2000
4000
8000
ENDCHAR
STARTCHAR Euro
ENCODING 8364
SWIDTH 360 0
DWIDTH 13 0
BBX 11 11 0 0
BITMAP
07E0
1820
1020
2000
7F00
2000
FE00
2000
2080
3100
1E00
ENDCHAR
STARTCHAR trademark
ENCODING 8482
SWIDTH 389 0
DWIDTH 14 0
BBX 11 6 2 5
BITMAP
FD20
2160
27A0
4940
4920
1000
ENDCHAR
STARTCHAR minus
ENCODING 8722
SWIDTH 301 0
DWIDTH 11 0
BBX 8 1 2 5
BITMAP
FF
ENDCHAR
STARTCHAR fi
ENCODING 64257
SWIDTH 297 0
DWIDTH 11 0
BBX 29 36 -11 -9
BITMAP
00000070
00000198
00000208
00000400
00000800
00001000
00001000
00002000
00002000
00004000
00004000
00004000
00008100
00008200
00008400
00008C00
00010000
00010000
000FF800
00031000
00021000
00021000
00062000
00042000
000C2000
00082800
00083000
00100000
00100000
00200000
00200000
00400000
00800000
81000000
82000000
7C000000
ENDCHAR
STARTCHAR fl
ENCODING 64258
SWIDTH 290 0
DWIDTH 10 0
BBX 33 36 -10 -9
BITMAP
0000000300
000001EF80
0000023100
0000042000
0000084000
0000108000
0000210000
0000210000
0000420000
0000420000
0000440000
0000840000
0000880000
0001880000
0001100000
0001100000
0003100000
0002200000
000FE00000
0012200000
0006200000
0004400000
0004400000
000C400000
0008480000
0008500000
0010600000
0010000000
0020000000
0020000000
0040000000
0040000000
0080000000
8100000000
8200000000
FC00000000
ENDCHAR
STARTCHAR .notdef
ENCODING -1
SWIDTH 150 0
DWIDTH 5 0
BBX 1 1 0 0
BITMAP
00
ENDCHAR
STARTCHAR .null
ENCODING -1
SWIDTH 0 0
DWIDTH 0 0
BBX 1 1 0 0
BITMAP
00
ENDCHAR
STARTCHAR nonmarkingreturn
ENCODING -1
SWIDTH 150 0
DWIDTH 5 0
BBX 1 1 0 0
BITMAP
00
ENDCHAR
ENDFONT
